<svg xmlns="http://www.w3.org/2000/svg" version="1.1" xmlns:xlink="http://www.w3.org/1999/xlink" xmlns:svgjs="http://svgjs.dev/svgjs" width="128" height="128" viewBox="0 0 128 128"><g transform="matrix(0.8046875,0,0,0.8046875,12.760752631578946,36.86563127518283)"><svg viewBox="0 0 95 50" data-background-color="#ffffff" preserveAspectRatio="xMidYMid meet" height="67" width="128" xmlns="http://www.w3.org/2000/svg" xmlns:xlink="http://www.w3.org/1999/xlink"><g id="tight-bounds" transform="matrix(1,0,0,1,-0.24049999999999727,0.1644630979321704)"><svg viewBox="0 0 95.481 49.671073804135666" height="49.671073804135666" width="95.481"><g><svg viewBox="0 0 95.481 49.671073804135666" height="49.671073804135666" width="95.481"><g><svg viewBox="0 0 95.481 49.671073804135666" height="49.671073804135666" width="95.481"><g id="textblocktransform"><svg viewBox="0 0 95.481 49.671073804135666" height="49.671073804135666" width="95.481" id="textblock"><g><svg viewBox="0 0 95.481 49.671073804135666" height="49.671073804135666" width="95.481"><g><svg viewBox="0 0 95.481 49.671073804135666" height="49.671073804135666" width="95.481"><g><svg xmlns="http://www.w3.org/2000/svg" xmlns:xlink="http://www.w3.org/1999/xlink" version="1.1" x="0" y="0" viewBox="4.828045506129648 26.114000000000004 90.34395449387037 46.99868278948178" enable-background="new 0 0 100 100" xml:space="preserve" height="49.671073804135666" width="95.481" class="icon-icon-0" data-fill-palette-color="accent" id="icon-0"><g fill="#000000" data-fill-palette-color="accent"><path d="M17.408 70.173c0 1.66 2.53 2.939 3.714 2.939 17.632 0 69.747-0.006 69.747-0.006s4.303 0.289 4.303-2.934c0-1.369 0-2.712 0-3.897H17.408V70.173z" fill="#ffffff" data-fill-palette-color="accent"></path><path d="M92.924 58.155l-13.395-3.558c-1.018 3.165-2.318 6.21-3.91 9.132h19.553v-0.982C95.172 61.676 92.924 58.155 92.924 58.155z" fill="#ffffff" data-fill-palette-color="accent"></path><path d="M40.25 33.5C33.625 44 21.658 57.375 17.408 57.375v6.354H36.5c0 0-2.25-17.813 7.25-28.604C43.451 32.089 40.959 32.846 40.25 33.5z" fill="#ffffff" data-fill-palette-color="accent"></path><path d="M40.125 32c1.625-1.333 4.917-0.208 4.625 3.667-10.25 12-6.25 28.063-6.25 28.063h34.527l2.947-6.159c0.506-1.239 0.977-2.49 1.385-3.771l-1.334-2.58c0 0-21.984-11.43-22.371-11.82-0.395-0.39-9.184-10.55-9.184-10.55h-2.639c0 0-2.149-2.736-4.298-2.736-2.151 0-4.201 5.471-4.201 5.471s-8.792 0.289-13.872 0.289c-5.079 0-13.871-4.295-13.871-4.295-1.466 2.933 1.856 3.908-0.197 5.959-1.296 1.296-0.095 3.958 0.966 5.743 2.449 0.806 4.911 1.346 7.529 1.384 1.208 0.018 1.209 1.894 0 1.875-2.189-0.034-4.289-0.39-6.359-0.953 0.005 1.138 0.244 3.835 2.096 5.442 2.21 0.245 4.414 0.433 6.625-0.062 1.178-0.267 1.677 1.542 0.499 1.806-1.698 0.383-3.373 0.404-5.053 0.297 0.486 4.898 4.638 4.271 4.638 5.373 0 1.176 1.075 2.249 1.075 2.249C26.815 52.756 31.694 42.02 40.125 32zM70.842 50.582c0.717 0 1.293 0.46 1.293 1.033 0 0.566-0.576 1.025-1.293 1.025-0.703 0-1.285-0.459-1.285-1.025C69.557 51.042 70.139 50.582 70.842 50.582zM64.982 48.236c0.711 0 1.285 0.461 1.285 1.031s-0.574 1.029-1.285 1.029-1.291-0.459-1.291-1.029S64.271 48.236 64.982 48.236zM59.123 45.892c0.711 0 1.293 0.462 1.293 1.032 0 0.569-0.582 1.029-1.293 1.029-0.715 0-1.289-0.46-1.289-1.029C57.834 46.354 58.408 45.892 59.123 45.892z" fill="#ffffff" data-fill-palette-color="accent"></path></g></svg></g></svg></g></svg></g></svg></g></svg></g></svg></g><defs></defs></svg><rect width="95.481" height="49.671073804135666" fill="none" stroke="none" visibility="hidden"></rect></g></svg></g></svg>